M48
;Layer_Color=9474304
;FILE_FORMAT=2:4
INCH,LZ
;TYPE=PLATED
T1F00S00C0.0236
T2F00S00C0.0280
T3F00S00C0.0354
%
T01
X0389Y02455
X0394
Y02505
X0389
Y02555
X0394
X0309Y0331
Y0336
X0314
Y0331
X0319
Y0336
X03895
Y0331
X03945
Y0336
X03995
Y0331
T02
X03465Y0248
X0349Y02705
X03685Y0252
X03775Y0258
X0379Y0246
X03105Y0268
Y0275
X03095Y0346
X03115Y03785
X0334Y0376
X03155Y03565
X03215Y03475
X039Y0346
X0402Y03475
X0396Y03565
X0392Y03785
X04145Y0376
X0412Y04145
X0419
X03385
X03315
T03
X03165Y0248
X03265
X03365
Y03055
X03465
X03565
X03665
X03765
X03865
X03965
Y02955
Y02855
Y02755
Y02655
X03265Y03055
X03165
X03115Y03885
Y03985
Y04085
X0369
Y03985
Y03885
Y03785
Y03685
Y03585
Y03485
Y03385
Y03285
X0359
X0349
X0339
X0329
X04095
X04195
X04295
X04395
X04495
Y03385
Y03485
Y03585
Y03685
Y03785
Y03885
Y03985
Y04085
X0392
Y03985
Y03885
M30
