%FSLAX24Y24*%
%MOIN*%
G70*
G01*
G75*
G04 Layer_Physical_Order=1*
G04 Layer_Color=255*
%ADD10R,0.0748X0.0591*%
%ADD11R,0.0551X0.0591*%
%ADD12R,0.1000X0.0260*%
%ADD13C,0.0120*%
%ADD14C,0.0250*%
%ADD15C,0.0200*%
%ADD16R,0.0591X0.0748*%
%ADD17R,0.0591X0.0551*%
%ADD18R,0.0260X0.1000*%
%ADD19R,0.0591X0.0591*%
%ADD20C,0.0394*%
%ADD21R,0.0394X0.0394*%
%ADD22C,0.0591*%
%ADD23R,0.0591X0.0591*%
%ADD24C,0.0500*%
%ADD25R,0.0394X0.0394*%
D10*
X33650Y28440D02*
D03*
Y29660D02*
D03*
X32650Y28440D02*
D03*
Y29660D02*
D03*
X35650Y28440D02*
D03*
Y29660D02*
D03*
X36650Y28440D02*
D03*
Y29660D02*
D03*
X37650Y28440D02*
D03*
Y29660D02*
D03*
X34650Y28440D02*
D03*
Y29660D02*
D03*
X38650Y28440D02*
D03*
Y29660D02*
D03*
X31650Y28440D02*
D03*
Y29660D02*
D03*
D11*
X35644Y25200D02*
D03*
X34856D02*
D03*
X31506Y26050D02*
D03*
X32294D02*
D03*
Y27550D02*
D03*
X31506D02*
D03*
X32294Y26800D02*
D03*
X31506D02*
D03*
X36956Y26200D02*
D03*
X37744D02*
D03*
X36956Y27100D02*
D03*
X37744D02*
D03*
D12*
X33450Y25900D02*
D03*
Y26400D02*
D03*
Y26900D02*
D03*
Y27400D02*
D03*
X35850Y25900D02*
D03*
Y26400D02*
D03*
Y26900D02*
D03*
Y27400D02*
D03*
D13*
X38900Y26200D02*
Y27150D01*
X39100Y26000D02*
X38900Y26200D01*
X39550Y26000D02*
X39100D01*
X38900Y27150D02*
X38090Y27960D01*
X38650Y27089D02*
X38011Y27728D01*
X38650Y25800D02*
Y27089D01*
X38900Y25550D02*
X38650Y25800D01*
X37800Y24500D02*
X35100D01*
X34945Y24345D02*
X35100Y24500D01*
X34945Y24345D02*
X32461D01*
X32195Y24611D01*
X37800Y24500D02*
X37900Y24600D01*
X36410Y24790D02*
X36200Y25000D01*
X37290Y24790D02*
X36410D01*
X37290D02*
X37550Y25050D01*
X36200Y25000D02*
X35844D01*
X38200Y25050D02*
X37550D01*
X39700D02*
X39400D01*
X39700D02*
X39850Y25200D01*
X38900Y24550D02*
X38700D01*
X39850Y25700D02*
X39550Y26000D01*
X39850Y25200D02*
Y25700D01*
X38700Y24550D02*
X38200Y25050D01*
X38011Y27728D02*
X34778D01*
X38090Y27960D02*
X34660D01*
X35844Y25000D02*
X35644Y25200D01*
X32294Y25444D02*
Y26050D01*
X32195Y25345D02*
X32294Y25444D01*
X32195Y24611D02*
Y25345D01*
X34100Y27400D02*
X34660Y27960D01*
X34100Y27400D02*
X33548D01*
X33950Y26900D02*
X34778Y27728D01*
X33950Y26900D02*
X33548D01*
X30950Y24500D02*
Y24650D01*
X30700D01*
Y24900D01*
X30950D02*
Y25050D01*
Y24900D02*
X30700D01*
X40150Y26100D02*
X39850D01*
X40150Y25900D02*
Y26300D01*
X34350D02*
Y26500D01*
X34850Y26300D02*
Y26500D01*
X34600D01*
Y26300D02*
Y26500D01*
Y26300D02*
X34350D01*
X34600Y25950D02*
Y26150D01*
X34350Y25950D02*
Y26150D01*
X34850Y25950D02*
X34350D01*
X40600Y33600D02*
X41550D01*
X40400Y33400D02*
X40600Y33600D01*
X40400Y32950D02*
Y33400D01*
X41550Y33600D02*
X42360Y34410D01*
X41489Y33850D02*
X42128Y34489D01*
X40200Y33850D02*
X41489D01*
X39950Y33600D02*
X40200Y33850D01*
X38900Y34700D02*
Y37400D01*
X38745Y37555D02*
X38900Y37400D01*
X38745Y37555D02*
Y40039D01*
X39011Y40305D01*
X38900Y34700D02*
X39000Y34600D01*
X39190Y36090D02*
X39400Y36300D01*
X39190Y35210D02*
Y36090D01*
Y35210D02*
X39450Y34950D01*
X39400Y36300D02*
Y36656D01*
X39450Y34300D02*
Y34950D01*
Y32800D02*
Y33100D01*
Y32800D02*
X39600Y32650D01*
X38950Y33600D02*
Y33800D01*
X40100Y32650D02*
X40400Y32950D01*
X39600Y32650D02*
X40100D01*
X38950Y33800D02*
X39450Y34300D01*
X42128Y34489D02*
Y37722D01*
X42360Y34410D02*
Y37840D01*
X39400Y36656D02*
X39600Y36856D01*
X39844Y40206D02*
X40450D01*
X39745Y40305D02*
X39844Y40206D01*
X39011Y40305D02*
X39745D01*
X41800Y38400D02*
X42360Y37840D01*
X41800Y38400D02*
Y38952D01*
X41300Y38550D02*
X42128Y37722D01*
X41300Y38550D02*
Y38952D01*
X38900Y41550D02*
X39050D01*
Y41800D01*
X39300D01*
Y41550D02*
X39450D01*
X39300D02*
Y41800D01*
X40500Y32350D02*
Y32650D01*
X40300Y32350D02*
X40700D01*
Y38150D02*
X40900D01*
X40700Y37650D02*
X40900D01*
Y37900D01*
X40700D02*
X40900D01*
X40700D02*
Y38150D01*
X40350Y37900D02*
X40550D01*
X40350Y38150D02*
X40550D01*
X40350Y37650D02*
Y38150D01*
X32550Y33600D02*
X33500D01*
X32350Y33400D02*
X32550Y33600D01*
X32350Y32950D02*
Y33400D01*
X33500Y33600D02*
X34310Y34410D01*
X33439Y33850D02*
X34078Y34489D01*
X32150Y33850D02*
X33439D01*
X31900Y33600D02*
X32150Y33850D01*
X30850Y34700D02*
Y37400D01*
X30695Y37555D02*
X30850Y37400D01*
X30695Y37555D02*
Y40039D01*
X30961Y40305D01*
X30850Y34700D02*
X30950Y34600D01*
X31140Y36090D02*
X31350Y36300D01*
X31140Y35210D02*
Y36090D01*
Y35210D02*
X31400Y34950D01*
X31350Y36300D02*
Y36656D01*
X31400Y34300D02*
Y34950D01*
Y32800D02*
Y33100D01*
Y32800D02*
X31550Y32650D01*
X30900Y33600D02*
Y33800D01*
X32050Y32650D02*
X32350Y32950D01*
X31550Y32650D02*
X32050D01*
X30900Y33800D02*
X31400Y34300D01*
X34078Y34489D02*
Y37722D01*
X34310Y34410D02*
Y37840D01*
X31350Y36656D02*
X31550Y36856D01*
X31794Y40206D02*
X32400D01*
X31695Y40305D02*
X31794Y40206D01*
X30961Y40305D02*
X31695D01*
X33750Y38400D02*
X34310Y37840D01*
X33750Y38400D02*
Y38952D01*
X33250Y38550D02*
X34078Y37722D01*
X33250Y38550D02*
Y38952D01*
X30850Y41550D02*
X31000D01*
Y41800D01*
X31250D01*
Y41550D02*
X31400D01*
X31250D02*
Y41800D01*
X32450Y32350D02*
Y32650D01*
X32250Y32350D02*
X32650D01*
Y38150D02*
X32850D01*
X32650Y37650D02*
X32850D01*
Y37900D01*
X32650D02*
X32850D01*
X32650D02*
Y38150D01*
X32300Y37900D02*
X32500D01*
X32300Y38150D02*
X32500D01*
X32300Y37650D02*
Y38150D01*
D14*
X34676Y24674D02*
X34650Y24700D01*
X34676Y24674D02*
X34856Y24854D01*
X34650Y24700D02*
Y24800D01*
X39650Y28400D02*
X38690D01*
X39650Y29550D02*
Y30550D01*
Y28400D02*
Y29550D01*
X38690Y28400D02*
X38650Y28440D01*
X34856Y24854D02*
Y25200D01*
X38650Y28440D02*
X37650D01*
X36650D01*
X35650D01*
X34650D01*
X33650D01*
X32650D01*
X31650D01*
Y29660D02*
Y30550D01*
X32650Y29660D02*
Y30550D01*
X33650Y29660D02*
Y30550D01*
X34650Y29660D02*
Y30550D01*
X35650Y29660D02*
Y30550D01*
X36650Y29660D02*
Y30550D01*
X37650Y29660D02*
Y30550D01*
X38650Y29660D02*
Y30550D01*
X32650Y24800D02*
Y25000D01*
X31650Y24800D02*
X31506Y24944D01*
Y26050D01*
X35644Y25791D02*
X35752Y25900D01*
X35644Y25200D02*
Y25791D01*
X36956Y26200D02*
X36756Y26400D01*
X35752D01*
X34856Y25200D02*
X34606Y25450D01*
X33100D01*
X32650Y25000D02*
X33100Y25450D01*
Y25800D01*
X33200Y25900D01*
X33548D02*
X33200D01*
X35752Y27400D02*
X35250D01*
X34900Y27050D02*
X35250Y27400D01*
X39074Y37824D02*
X39100Y37850D01*
X39074Y37824D02*
X39254Y37644D01*
X39100Y37850D02*
X39200D01*
X42800Y32850D02*
Y33810D01*
X43950Y32850D02*
X44950D01*
X42800D02*
X43950D01*
X42800Y33810D02*
X42840Y33850D01*
X39254Y37644D02*
X39600D01*
X42840Y33850D02*
Y34850D01*
Y35850D01*
Y36850D01*
Y37850D01*
Y38850D01*
Y39850D01*
Y40850D01*
X44060D02*
X44950D01*
X44060Y39850D02*
X44950D01*
X44060Y38850D02*
X44950D01*
X44060Y37850D02*
X44950D01*
X44060Y36850D02*
X44950D01*
X44060Y35850D02*
X44950D01*
X44060Y34850D02*
X44950D01*
X44060Y33850D02*
X44950D01*
X39200Y39850D02*
X39400D01*
X39200Y40850D02*
X39344Y40994D01*
X40450D01*
X40191Y36856D02*
X40300Y36748D01*
X39600Y36856D02*
X40191D01*
X40600Y35544D02*
X40800Y35744D01*
Y36748D01*
X39600Y37644D02*
X39850Y37894D01*
Y39400D01*
X39400Y39850D02*
X39850Y39400D01*
X40200D01*
X40300Y39300D01*
Y38952D02*
Y39300D01*
X41800Y36748D02*
Y37250D01*
X41450Y37600D02*
X41800Y37250D01*
X31024Y37824D02*
X31050Y37850D01*
X31024Y37824D02*
X31204Y37644D01*
X31050Y37850D02*
X31150D01*
X34750Y32850D02*
Y33810D01*
X35900Y32850D02*
X36900D01*
X34750D02*
X35900D01*
X34750Y33810D02*
X34790Y33850D01*
X31204Y37644D02*
X31550D01*
X34790Y33850D02*
Y34850D01*
Y35850D01*
Y36850D01*
Y37850D01*
Y38850D01*
Y39850D01*
Y40850D01*
X36010D02*
X36900D01*
X36010Y39850D02*
X36900D01*
X36010Y38850D02*
X36900D01*
X36010Y37850D02*
X36900D01*
X36010Y36850D02*
X36900D01*
X36010Y35850D02*
X36900D01*
X36010Y34850D02*
X36900D01*
X36010Y33850D02*
X36900D01*
X31150Y39850D02*
X31350D01*
X31150Y40850D02*
X31294Y40994D01*
X32400D01*
X32141Y36856D02*
X32250Y36748D01*
X31550Y36856D02*
X32141D01*
X32550Y35544D02*
X32750Y35744D01*
Y36748D01*
X31550Y37644D02*
X31800Y37894D01*
Y39400D01*
X31350Y39850D02*
X31800Y39400D01*
X32150D01*
X32250Y39300D01*
Y38952D02*
Y39300D01*
X33750Y36748D02*
Y37250D01*
X33400Y37600D02*
X33750Y37250D01*
D15*
X37936Y25350D02*
X37100D01*
X37936D02*
X38269Y25683D01*
X36950Y25200D02*
X37100Y25350D01*
X38269Y25683D02*
Y26678D01*
X36950Y25200D02*
X36850D01*
X32500Y26050D02*
X32850Y26400D01*
X32500Y26050D02*
X32294D01*
X38269Y26678D02*
X37794Y27154D01*
Y27300D01*
X37750Y25800D02*
X37794Y25844D01*
Y26300D01*
X31050Y27500D02*
X31100Y27550D01*
X31506D02*
X31100D01*
X31506Y26800D02*
X31050D01*
X36756Y26900D02*
X36956Y27100D01*
X36756Y26900D02*
X35752D01*
X33548Y26400D02*
X32850D01*
X33548Y27400D02*
X32444D01*
X32294Y27550D01*
Y26800D02*
X32394Y26900D01*
X33548D02*
X32394D01*
X39750Y34564D02*
Y35400D01*
Y34564D02*
X40083Y34231D01*
X39600Y35550D02*
X39750Y35400D01*
X40083Y34231D02*
X41078D01*
X39600Y35550D02*
Y35650D01*
X40450Y40000D02*
X40800Y39650D01*
X40450Y40000D02*
Y40206D01*
X41078Y34231D02*
X41554Y34706D01*
X41700D01*
X40200Y34750D02*
X40244Y34706D01*
X40700D01*
X41900Y41450D02*
X41950Y41400D01*
Y40994D02*
Y41400D01*
X41200Y40994D02*
Y41450D01*
X41300Y35744D02*
X41500Y35544D01*
X41300Y35744D02*
Y36748D01*
X40800Y38952D02*
Y39650D01*
X41800Y38952D02*
Y40056D01*
X41950Y40206D01*
X41200D02*
X41300Y40106D01*
Y38952D02*
Y40106D01*
X31700Y34564D02*
Y35400D01*
Y34564D02*
X32033Y34231D01*
X31550Y35550D02*
X31700Y35400D01*
X32033Y34231D02*
X33028D01*
X31550Y35550D02*
Y35650D01*
X32400Y40000D02*
X32750Y39650D01*
X32400Y40000D02*
Y40206D01*
X33028Y34231D02*
X33504Y34706D01*
X33650D01*
X32150Y34750D02*
X32194Y34706D01*
X32650D01*
X33850Y41450D02*
X33900Y41400D01*
Y40994D02*
Y41400D01*
X33150Y40994D02*
Y41450D01*
X33250Y35744D02*
X33450Y35544D01*
X33250Y35744D02*
Y36748D01*
X32750Y38952D02*
Y39650D01*
X33750Y38952D02*
Y40056D01*
X33900Y40206D01*
X33150D02*
X33250Y40106D01*
Y38952D02*
Y40106D01*
D16*
X42840Y38850D02*
D03*
X44060D02*
D03*
X42840Y39850D02*
D03*
X44060D02*
D03*
X42840Y36850D02*
D03*
X44060D02*
D03*
X42840Y35850D02*
D03*
X44060D02*
D03*
X42840Y34850D02*
D03*
X44060D02*
D03*
X42840Y37850D02*
D03*
X44060D02*
D03*
X42840Y33850D02*
D03*
X44060D02*
D03*
X42840Y40850D02*
D03*
X44060D02*
D03*
X34790Y38850D02*
D03*
X36010D02*
D03*
X34790Y39850D02*
D03*
X36010D02*
D03*
X34790Y36850D02*
D03*
X36010D02*
D03*
X34790Y35850D02*
D03*
X36010D02*
D03*
X34790Y34850D02*
D03*
X36010D02*
D03*
X34790Y37850D02*
D03*
X36010D02*
D03*
X34790Y33850D02*
D03*
X36010D02*
D03*
X34790Y40850D02*
D03*
X36010D02*
D03*
D17*
X39600Y36856D02*
D03*
Y37644D02*
D03*
X40450Y40994D02*
D03*
Y40206D02*
D03*
X41950D02*
D03*
Y40994D02*
D03*
X41200Y40206D02*
D03*
Y40994D02*
D03*
X40600Y35544D02*
D03*
Y34756D02*
D03*
X41500Y35544D02*
D03*
Y34756D02*
D03*
X31550Y36856D02*
D03*
Y37644D02*
D03*
X32400Y40994D02*
D03*
Y40206D02*
D03*
X33900D02*
D03*
Y40994D02*
D03*
X33150Y40206D02*
D03*
Y40994D02*
D03*
X32550Y35544D02*
D03*
Y34756D02*
D03*
X33450Y35544D02*
D03*
Y34756D02*
D03*
D18*
X40300Y39050D02*
D03*
X40800D02*
D03*
X41300D02*
D03*
X41800D02*
D03*
X40300Y36650D02*
D03*
X40800D02*
D03*
X41300D02*
D03*
X41800D02*
D03*
X32250Y39050D02*
D03*
X32750D02*
D03*
X33250D02*
D03*
X33750D02*
D03*
X32250Y36650D02*
D03*
X32750D02*
D03*
X33250D02*
D03*
X33750D02*
D03*
D19*
X39650Y28550D02*
D03*
X35650Y30550D02*
D03*
X34650D02*
D03*
X33650D02*
D03*
X32650D02*
D03*
X39650Y27550D02*
D03*
X31650Y30550D02*
D03*
X38650D02*
D03*
X37650D02*
D03*
X36650D02*
D03*
X39650Y29550D02*
D03*
Y30550D02*
D03*
X39200Y38850D02*
D03*
X31150D02*
D03*
D20*
X39400Y24550D02*
D03*
X38900D02*
D03*
X39400Y25050D02*
D03*
X38900D02*
D03*
X39400Y25550D02*
D03*
X38950Y33100D02*
D03*
Y33600D02*
D03*
X39450Y33100D02*
D03*
Y33600D02*
D03*
X39950Y33100D02*
D03*
X30900D02*
D03*
Y33600D02*
D03*
X31400Y33100D02*
D03*
Y33600D02*
D03*
X31900Y33100D02*
D03*
D21*
X38900Y25550D02*
D03*
D22*
X31650Y24800D02*
D03*
X32650D02*
D03*
X39650Y26550D02*
D03*
X39200Y40850D02*
D03*
Y39850D02*
D03*
X40950Y32850D02*
D03*
X31150Y40850D02*
D03*
Y39850D02*
D03*
X32900Y32850D02*
D03*
D23*
X33650Y24800D02*
D03*
X42950Y32850D02*
D03*
X44950Y36850D02*
D03*
Y37850D02*
D03*
Y38850D02*
D03*
Y39850D02*
D03*
X41950Y32850D02*
D03*
X44950Y40850D02*
D03*
Y33850D02*
D03*
Y34850D02*
D03*
Y35850D02*
D03*
X43950Y32850D02*
D03*
X44950D02*
D03*
X34900D02*
D03*
X36900Y36850D02*
D03*
Y37850D02*
D03*
Y38850D02*
D03*
Y39850D02*
D03*
X33900Y32850D02*
D03*
X36900Y40850D02*
D03*
Y33850D02*
D03*
Y34850D02*
D03*
Y35850D02*
D03*
X35900Y32850D02*
D03*
X36900D02*
D03*
D24*
X37900Y24600D02*
D03*
X34650Y24800D02*
D03*
X36850Y25200D02*
D03*
X37750Y25800D02*
D03*
X31050Y27500D02*
D03*
Y26800D02*
D03*
X34900Y27050D02*
D03*
X39000Y34600D02*
D03*
X39200Y37850D02*
D03*
X39600Y35650D02*
D03*
X40200Y34750D02*
D03*
X41900Y41450D02*
D03*
X41200D02*
D03*
X41450Y37600D02*
D03*
X30950Y34600D02*
D03*
X31150Y37850D02*
D03*
X31550Y35650D02*
D03*
X32150Y34750D02*
D03*
X33850Y41450D02*
D03*
X33150D02*
D03*
X33400Y37600D02*
D03*
D25*
X39950Y33600D02*
D03*
X31900D02*
D03*
M02*
