%FSLAX24Y24*%
%MOIN*%
G70*
G01*
G75*
G04 Layer_Color=8388736*
%ADD10R,0.0748X0.0591*%
%ADD11R,0.0551X0.0591*%
%ADD12R,0.1000X0.0260*%
%ADD13C,0.0120*%
%ADD14C,0.0250*%
%ADD15C,0.0200*%
%ADD16R,0.0591X0.0748*%
%ADD17R,0.0591X0.0551*%
%ADD18R,0.0260X0.1000*%
%ADD19R,0.0591X0.0591*%
%ADD20C,0.0394*%
%ADD21R,0.0394X0.0394*%
%ADD22C,0.0591*%
%ADD23R,0.0591X0.0591*%
%ADD24C,0.0500*%
%ADD25R,0.0394X0.0394*%
%ADD26R,0.0315X0.0512*%
%ADD27R,0.0320X0.0500*%
%ADD28R,0.0591X0.0630*%
%ADD29R,0.0630X0.0591*%
%ADD30R,0.0512X0.0315*%
%ADD31R,0.0500X0.0320*%
%ADD32R,0.0630X0.0591*%
%ADD33C,0.0079*%
%ADD34C,0.0050*%
%ADD35R,0.0828X0.0671*%
%ADD36R,0.0631X0.0671*%
%ADD37R,0.1080X0.0340*%
%ADD38R,0.0671X0.0828*%
%ADD39R,0.0671X0.0631*%
%ADD40R,0.0340X0.1080*%
%ADD41R,0.0671X0.0671*%
%ADD42C,0.0474*%
%ADD43R,0.0474X0.0474*%
%ADD44C,0.0671*%
%ADD45R,0.0671X0.0671*%
%ADD46C,0.0580*%
%ADD47R,0.0474X0.0474*%
D35*
X33650Y28440D02*
D03*
Y29660D02*
D03*
X32650Y28440D02*
D03*
Y29660D02*
D03*
X35650Y28440D02*
D03*
Y29660D02*
D03*
X36650Y28440D02*
D03*
Y29660D02*
D03*
X37650Y28440D02*
D03*
Y29660D02*
D03*
X34650Y28440D02*
D03*
Y29660D02*
D03*
X38650Y28440D02*
D03*
Y29660D02*
D03*
X31650Y28440D02*
D03*
Y29660D02*
D03*
D36*
X35644Y25200D02*
D03*
X34856D02*
D03*
X31506Y26050D02*
D03*
X32294D02*
D03*
Y27550D02*
D03*
X31506D02*
D03*
X32294Y26800D02*
D03*
X31506D02*
D03*
X36956Y26200D02*
D03*
X37744D02*
D03*
X36956Y27100D02*
D03*
X37744D02*
D03*
D37*
X33450Y25900D02*
D03*
Y26400D02*
D03*
Y26900D02*
D03*
Y27400D02*
D03*
X35850Y25900D02*
D03*
Y26400D02*
D03*
Y26900D02*
D03*
Y27400D02*
D03*
D38*
X42840Y38850D02*
D03*
X44060D02*
D03*
X42840Y39850D02*
D03*
X44060D02*
D03*
X42840Y36850D02*
D03*
X44060D02*
D03*
X42840Y35850D02*
D03*
X44060D02*
D03*
X42840Y34850D02*
D03*
X44060D02*
D03*
X42840Y37850D02*
D03*
X44060D02*
D03*
X42840Y33850D02*
D03*
X44060D02*
D03*
X42840Y40850D02*
D03*
X44060D02*
D03*
X34790Y38850D02*
D03*
X36010D02*
D03*
X34790Y39850D02*
D03*
X36010D02*
D03*
X34790Y36850D02*
D03*
X36010D02*
D03*
X34790Y35850D02*
D03*
X36010D02*
D03*
X34790Y34850D02*
D03*
X36010D02*
D03*
X34790Y37850D02*
D03*
X36010D02*
D03*
X34790Y33850D02*
D03*
X36010D02*
D03*
X34790Y40850D02*
D03*
X36010D02*
D03*
D39*
X39600Y36856D02*
D03*
Y37644D02*
D03*
X40450Y40994D02*
D03*
Y40206D02*
D03*
X41950D02*
D03*
Y40994D02*
D03*
X41200Y40206D02*
D03*
Y40994D02*
D03*
X40600Y35544D02*
D03*
Y34756D02*
D03*
X41500Y35544D02*
D03*
Y34756D02*
D03*
X31550Y36856D02*
D03*
Y37644D02*
D03*
X32400Y40994D02*
D03*
Y40206D02*
D03*
X33900D02*
D03*
Y40994D02*
D03*
X33150Y40206D02*
D03*
Y40994D02*
D03*
X32550Y35544D02*
D03*
Y34756D02*
D03*
X33450Y35544D02*
D03*
Y34756D02*
D03*
D40*
X40300Y39050D02*
D03*
X40800D02*
D03*
X41300D02*
D03*
X41800D02*
D03*
X40300Y36650D02*
D03*
X40800D02*
D03*
X41300D02*
D03*
X41800D02*
D03*
X32250Y39050D02*
D03*
X32750D02*
D03*
X33250D02*
D03*
X33750D02*
D03*
X32250Y36650D02*
D03*
X32750D02*
D03*
X33250D02*
D03*
X33750D02*
D03*
D41*
X39650Y28550D02*
D03*
X35650Y30550D02*
D03*
X34650D02*
D03*
X33650D02*
D03*
X32650D02*
D03*
X39650Y27550D02*
D03*
X31650Y30550D02*
D03*
X38650D02*
D03*
X37650D02*
D03*
X36650D02*
D03*
X39650Y29550D02*
D03*
Y30550D02*
D03*
X39200Y38850D02*
D03*
X31150D02*
D03*
D42*
X39400Y24550D02*
D03*
X38900D02*
D03*
X39400Y25050D02*
D03*
X38900D02*
D03*
X39400Y25550D02*
D03*
X38950Y33100D02*
D03*
Y33600D02*
D03*
X39450Y33100D02*
D03*
Y33600D02*
D03*
X39950Y33100D02*
D03*
X30900D02*
D03*
Y33600D02*
D03*
X31400Y33100D02*
D03*
Y33600D02*
D03*
X31900Y33100D02*
D03*
D43*
X38900Y25550D02*
D03*
D44*
X31650Y24800D02*
D03*
X32650D02*
D03*
X39650Y26550D02*
D03*
X39200Y40850D02*
D03*
Y39850D02*
D03*
X40950Y32850D02*
D03*
X31150Y40850D02*
D03*
Y39850D02*
D03*
X32900Y32850D02*
D03*
D45*
X33650Y24800D02*
D03*
X42950Y32850D02*
D03*
X44950Y36850D02*
D03*
Y37850D02*
D03*
Y38850D02*
D03*
Y39850D02*
D03*
X41950Y32850D02*
D03*
X44950Y40850D02*
D03*
Y33850D02*
D03*
Y34850D02*
D03*
Y35850D02*
D03*
X43950Y32850D02*
D03*
X44950D02*
D03*
X34900D02*
D03*
X36900Y36850D02*
D03*
Y37850D02*
D03*
Y38850D02*
D03*
Y39850D02*
D03*
X33900Y32850D02*
D03*
X36900Y40850D02*
D03*
Y33850D02*
D03*
Y34850D02*
D03*
Y35850D02*
D03*
X35900Y32850D02*
D03*
X36900D02*
D03*
D46*
X37900Y24600D02*
D03*
X34650Y24800D02*
D03*
X36850Y25200D02*
D03*
X37750Y25800D02*
D03*
X31050Y27500D02*
D03*
Y26800D02*
D03*
X34900Y27050D02*
D03*
X39000Y34600D02*
D03*
X39200Y37850D02*
D03*
X39600Y35650D02*
D03*
X40200Y34750D02*
D03*
X41900Y41450D02*
D03*
X41200D02*
D03*
X41450Y37600D02*
D03*
X30950Y34600D02*
D03*
X31150Y37850D02*
D03*
X31550Y35650D02*
D03*
X32150Y34750D02*
D03*
X33850Y41450D02*
D03*
X33150D02*
D03*
X33400Y37600D02*
D03*
D47*
X39950Y33600D02*
D03*
X31900D02*
D03*
M02*
