%FSLAX24Y24*%
%MOIN*%
G70*
G01*
G75*
G04 Layer_Color=65535*
%ADD10R,0.0748X0.0591*%
%ADD11R,0.0551X0.0591*%
%ADD12R,0.1000X0.0260*%
%ADD13C,0.0120*%
%ADD14C,0.0250*%
%ADD15C,0.0200*%
%ADD16R,0.0591X0.0748*%
%ADD17R,0.0591X0.0551*%
%ADD18R,0.0260X0.1000*%
%ADD19R,0.0591X0.0591*%
%ADD20C,0.0394*%
%ADD21R,0.0394X0.0394*%
%ADD22C,0.0591*%
%ADD23R,0.0591X0.0591*%
%ADD24C,0.0500*%
%ADD25R,0.0394X0.0394*%
%ADD26R,0.0315X0.0512*%
%ADD27R,0.0320X0.0500*%
%ADD28R,0.0591X0.0630*%
%ADD29R,0.0630X0.0591*%
%ADD30R,0.0512X0.0315*%
%ADD31R,0.0500X0.0320*%
%ADD32R,0.0630X0.0591*%
%ADD33C,0.0079*%
%ADD34C,0.0050*%
G36*
X35858Y25620D02*
Y25370D01*
X35608D01*
Y25620D01*
X35858D01*
D02*
G37*
G36*
X40020Y36642D02*
X39770D01*
Y36892D01*
X40020D01*
Y36642D01*
D02*
G37*
G36*
X31970D02*
X31720D01*
Y36892D01*
X31970D01*
Y36642D01*
D02*
G37*
D33*
X40150Y28050D02*
Y29050D01*
X39150D01*
X40150Y28050D02*
X39150D01*
Y29050D01*
X38550Y24200D02*
Y25904D01*
X39750Y24200D02*
X38550D01*
X39750D02*
Y25904D01*
X38550D01*
X34150Y25300D02*
X31150D01*
Y24300D02*
Y25300D01*
X34150Y24300D02*
Y25300D01*
Y24300D02*
X31150D01*
X35150Y30050D02*
Y31050D01*
X36150Y30050D02*
X35150D01*
X36150Y31050D02*
X35150D01*
X36150Y30050D02*
Y31050D01*
X34150Y30050D02*
Y31050D01*
X35150Y30050D02*
X34150D01*
X35150Y31050D02*
X34150D01*
X35150Y30050D02*
Y31050D01*
X33150Y30050D02*
Y31050D01*
X34150Y30050D02*
X33150D01*
X34150Y31050D02*
X33150D01*
X34150Y30050D02*
Y31050D01*
X32150Y30050D02*
Y31050D01*
X33150Y30050D02*
X32150D01*
X33150Y31050D02*
X32150D01*
X33150Y30050D02*
Y31050D01*
X39150Y26050D02*
Y28050D01*
X40150Y26050D02*
X39150D01*
X40150Y28050D02*
X39150D01*
X40150Y26050D02*
Y28050D01*
X31150Y30050D02*
Y31050D01*
X32150Y30050D02*
X31150D01*
X32150Y31050D02*
X31150D01*
X32150Y30050D02*
Y31050D01*
X38150Y30050D02*
Y31050D01*
X39150Y30050D02*
X38150D01*
X39150Y31050D02*
X38150D01*
X39150Y30050D02*
Y31050D01*
X37150Y30050D02*
Y31050D01*
X38150Y30050D02*
X37150D01*
X38150Y31050D02*
X37150D01*
X38150Y30050D02*
Y31050D01*
X36150Y30050D02*
Y31050D01*
X37150Y30050D02*
X36150D01*
X37150Y31050D02*
X36150D01*
X37150Y30050D02*
Y31050D01*
X39150Y29050D02*
Y30050D01*
X40150Y29050D02*
X39150D01*
X40150Y30050D02*
X39150D01*
X40150Y29050D02*
Y30050D01*
X39150D02*
Y31050D01*
X40150Y30050D02*
X39150D01*
X40150Y31050D02*
X39150D01*
X40150Y30050D02*
Y31050D01*
X38700Y26180D02*
Y26049D01*
Y26114D01*
X39094D01*
X39028Y26180D01*
X42450Y32350D02*
X43450D01*
Y33350D01*
X42450Y32350D02*
Y33350D01*
X43450D01*
X38600Y33950D02*
X40304D01*
X38600Y32750D02*
Y33950D01*
Y32750D02*
X40304D01*
Y33950D01*
X39700Y38350D02*
Y41350D01*
X38700D02*
X39700D01*
X38700Y38350D02*
X39700D01*
X38700D02*
Y41350D01*
X44450Y37350D02*
X45450D01*
X44450Y36350D02*
Y37350D01*
X45450Y36350D02*
Y37350D01*
X44450Y36350D02*
X45450D01*
X44450Y38350D02*
X45450D01*
X44450Y37350D02*
Y38350D01*
X45450Y37350D02*
Y38350D01*
X44450Y37350D02*
X45450D01*
X44450Y39350D02*
X45450D01*
X44450Y38350D02*
Y39350D01*
X45450Y38350D02*
Y39350D01*
X44450Y38350D02*
X45450D01*
X44450Y40350D02*
X45450D01*
X44450Y39350D02*
Y40350D01*
X45450Y39350D02*
Y40350D01*
X44450Y39350D02*
X45450D01*
X40450Y33350D02*
X42450D01*
X40450Y32350D02*
Y33350D01*
X42450Y32350D02*
Y33350D01*
X40450Y32350D02*
X42450D01*
X44450Y41350D02*
X45450D01*
X44450Y40350D02*
Y41350D01*
X45450Y40350D02*
Y41350D01*
X44450Y40350D02*
X45450D01*
X44450Y34350D02*
X45450D01*
X44450Y33350D02*
Y34350D01*
X45450Y33350D02*
Y34350D01*
X44450Y33350D02*
X45450D01*
X44450Y35350D02*
X45450D01*
X44450Y34350D02*
Y35350D01*
X45450Y34350D02*
Y35350D01*
X44450Y34350D02*
X45450D01*
X44450Y36350D02*
X45450D01*
X44450Y35350D02*
Y36350D01*
X45450Y35350D02*
Y36350D01*
X44450Y35350D02*
X45450D01*
X43450Y33350D02*
X44450D01*
X43450Y32350D02*
Y33350D01*
X44450Y32350D02*
Y33350D01*
X43450Y32350D02*
X44450D01*
Y33350D02*
X45450D01*
X44450Y32350D02*
Y33350D01*
X45450Y32350D02*
Y33350D01*
X44450Y32350D02*
X45450D01*
X40580Y33800D02*
X40449D01*
X40514D01*
Y33406D01*
X40580Y33472D01*
X34400Y32350D02*
X35400D01*
Y33350D01*
X34400Y32350D02*
Y33350D01*
X35400D01*
X30550Y33950D02*
X32254D01*
X30550Y32750D02*
Y33950D01*
Y32750D02*
X32254D01*
Y33950D01*
X31650Y38350D02*
Y41350D01*
X30650D02*
X31650D01*
X30650Y38350D02*
X31650D01*
X30650D02*
Y41350D01*
X36400Y37350D02*
X37400D01*
X36400Y36350D02*
Y37350D01*
X37400Y36350D02*
Y37350D01*
X36400Y36350D02*
X37400D01*
X36400Y38350D02*
X37400D01*
X36400Y37350D02*
Y38350D01*
X37400Y37350D02*
Y38350D01*
X36400Y37350D02*
X37400D01*
X36400Y39350D02*
X37400D01*
X36400Y38350D02*
Y39350D01*
X37400Y38350D02*
Y39350D01*
X36400Y38350D02*
X37400D01*
X36400Y40350D02*
X37400D01*
X36400Y39350D02*
Y40350D01*
X37400Y39350D02*
Y40350D01*
X36400Y39350D02*
X37400D01*
X32400Y33350D02*
X34400D01*
X32400Y32350D02*
Y33350D01*
X34400Y32350D02*
Y33350D01*
X32400Y32350D02*
X34400D01*
X36400Y41350D02*
X37400D01*
X36400Y40350D02*
Y41350D01*
X37400Y40350D02*
Y41350D01*
X36400Y40350D02*
X37400D01*
X36400Y34350D02*
X37400D01*
X36400Y33350D02*
Y34350D01*
X37400Y33350D02*
Y34350D01*
X36400Y33350D02*
X37400D01*
X36400Y35350D02*
X37400D01*
X36400Y34350D02*
Y35350D01*
X37400Y34350D02*
Y35350D01*
X36400Y34350D02*
X37400D01*
X36400Y36350D02*
X37400D01*
X36400Y35350D02*
Y36350D01*
X37400Y35350D02*
Y36350D01*
X36400Y35350D02*
X37400D01*
X35400Y33350D02*
X36400D01*
X35400Y32350D02*
Y33350D01*
X36400Y32350D02*
Y33350D01*
X35400Y32350D02*
X36400D01*
Y33350D02*
X37400D01*
X36400Y32350D02*
Y33350D01*
X37400Y32350D02*
Y33350D01*
X36400Y32350D02*
X37400D01*
X32530Y33800D02*
X32399D01*
X32464D01*
Y33406D01*
X32530Y33472D01*
D34*
X39600Y28150D02*
X39900Y28350D01*
X39600D02*
X39900Y28150D01*
Y28450D02*
Y28550D01*
Y28500D01*
X39600D01*
X39650Y28450D01*
X39600Y28900D02*
X39650Y28800D01*
X39750Y28700D01*
X39850D01*
X39900Y28750D01*
Y28850D01*
X39850Y28900D01*
X39800D01*
X39750Y28850D01*
Y28700D01*
X39350Y24550D02*
X39650Y24750D01*
X39350D02*
X39650Y24550D01*
Y24850D02*
Y24950D01*
Y24900D01*
X39350D01*
X39400Y24850D01*
X39350Y25300D02*
Y25100D01*
X39500D01*
X39450Y25200D01*
Y25250D01*
X39500Y25300D01*
X39600D01*
X39650Y25250D01*
Y25150D01*
X39600Y25100D01*
X33400Y24350D02*
X33200Y24650D01*
Y24350D02*
X33400Y24650D01*
X33100D02*
X33000D01*
X33050D01*
Y24350D01*
X33100Y24400D01*
X32700Y24650D02*
Y24350D01*
X32850Y24500D01*
X32650D01*
X35750Y30200D02*
X36050Y30400D01*
X35750D02*
X36050Y30200D01*
Y30500D02*
Y30600D01*
Y30550D01*
X35750D01*
X35800Y30500D01*
Y30750D02*
X35750Y30800D01*
Y30900D01*
X35800Y30950D01*
X35850D01*
X35900Y30900D01*
Y30850D01*
Y30900D01*
X35950Y30950D01*
X36000D01*
X36050Y30900D01*
Y30800D01*
X36000Y30750D01*
X34750Y30300D02*
X35050Y30500D01*
X34750D02*
X35050Y30300D01*
Y30600D02*
Y30700D01*
Y30650D01*
X34750D01*
X34800Y30600D01*
X35050Y31050D02*
Y30850D01*
X34850Y31050D01*
X34800D01*
X34750Y31000D01*
Y30900D01*
X34800Y30850D01*
X33850Y30200D02*
X34150Y30400D01*
X33850D02*
X34150Y30200D01*
Y30500D02*
Y30600D01*
Y30550D01*
X33850D01*
X33900Y30500D01*
X34150Y30750D02*
Y30850D01*
Y30800D01*
X33850D01*
X33900Y30750D01*
X32750Y30200D02*
X33050Y30400D01*
X32750D02*
X33050Y30200D01*
Y30500D02*
Y30600D01*
Y30550D01*
X32750D01*
X32800Y30500D01*
Y30750D02*
X32750Y30800D01*
Y30900D01*
X32800Y30950D01*
X33000D01*
X33050Y30900D01*
Y30800D01*
X33000Y30750D01*
X32800D01*
X39900Y27200D02*
X39600Y27000D01*
X39900D02*
X39600Y27200D01*
X39650Y26900D02*
X39600Y26850D01*
Y26750D01*
X39650Y26700D01*
X39850D01*
X39900Y26750D01*
Y26850D01*
X39850Y26900D01*
X39800D01*
X39750Y26850D01*
Y26700D01*
X31750Y30300D02*
X32050Y30500D01*
X31750D02*
X32050Y30300D01*
X31800Y30600D02*
X31750Y30650D01*
Y30750D01*
X31800Y30800D01*
X31850D01*
X31900Y30750D01*
X31950Y30800D01*
X32000D01*
X32050Y30750D01*
Y30650D01*
X32000Y30600D01*
X31950D01*
X31900Y30650D01*
X31850Y30600D01*
X31800D01*
X31900Y30650D02*
Y30750D01*
X38850Y30300D02*
X39150Y30500D01*
X38850D02*
X39150Y30300D01*
X38850Y30600D02*
Y30800D01*
X38900D01*
X39100Y30600D01*
X39150D01*
X37750Y30300D02*
X38050Y30500D01*
X37750D02*
X38050Y30300D01*
X37750Y30800D02*
X37800Y30700D01*
X37900Y30600D01*
X38000D01*
X38050Y30650D01*
Y30750D01*
X38000Y30800D01*
X37950D01*
X37900Y30750D01*
Y30600D01*
X36750Y30400D02*
X37050Y30600D01*
X36750D02*
X37050Y30400D01*
X36750Y30900D02*
Y30700D01*
X36900D01*
X36850Y30800D01*
Y30850D01*
X36900Y30900D01*
X37000D01*
X37050Y30850D01*
Y30750D01*
X37000Y30700D01*
X39750Y29300D02*
X40050Y29500D01*
X39750D02*
X40050Y29300D01*
Y29750D02*
X39750D01*
X39900Y29600D01*
Y29800D01*
X39750Y30400D02*
X40050Y30600D01*
X39750D02*
X40050Y30400D01*
X39800Y30700D02*
X39750Y30750D01*
Y30850D01*
X39800Y30900D01*
X39850D01*
X39900Y30850D01*
Y30800D01*
Y30850D01*
X39950Y30900D01*
X40000D01*
X40050Y30850D01*
Y30750D01*
X40000Y30700D01*
X34250Y26550D02*
X34500D01*
X34550Y26600D01*
Y26700D01*
X34500Y26750D01*
X34250D01*
X34550Y26850D02*
Y26950D01*
Y26900D01*
X34250D01*
X34300Y26850D01*
X35650Y25350D02*
Y25050D01*
X35500D01*
X35450Y25100D01*
Y25200D01*
X35500Y25250D01*
X35650D01*
X35550D02*
X35450Y25350D01*
X35350D02*
X35250D01*
X35300D01*
Y25050D01*
X35350Y25100D01*
X35100D02*
X35050Y25050D01*
X34950D01*
X34900Y25100D01*
Y25150D01*
X34950Y25200D01*
X34900Y25250D01*
Y25300D01*
X34950Y25350D01*
X35050D01*
X35100Y25300D01*
Y25250D01*
X35050Y25200D01*
X35100Y25150D01*
Y25100D01*
X35050Y25200D02*
X34950D01*
X31550Y25900D02*
Y26200D01*
X31700D01*
X31750Y26150D01*
Y26050D01*
X31700Y26000D01*
X31550D01*
X31650D02*
X31750Y25900D01*
X31850D02*
X31950D01*
X31900D01*
Y26200D01*
X31850Y26150D01*
X32100Y26200D02*
X32300D01*
Y26150D01*
X32100Y25950D01*
Y25900D01*
X32250Y27700D02*
Y27400D01*
X32100D01*
X32050Y27450D01*
Y27550D01*
X32100Y27600D01*
X32250D01*
X32150D02*
X32050Y27700D01*
X31950D02*
X31850D01*
X31900D01*
Y27400D01*
X31950Y27450D01*
X31500Y27700D02*
X31700D01*
X31500Y27500D01*
Y27450D01*
X31550Y27400D01*
X31650D01*
X31700Y27450D01*
X31650Y26650D02*
Y26950D01*
X31800D01*
X31850Y26900D01*
Y26800D01*
X31800Y26750D01*
X31650D01*
X31750D02*
X31850Y26650D01*
X31950Y26700D02*
X32000Y26650D01*
X32100D01*
X32150Y26700D01*
Y26900D01*
X32100Y26950D01*
X32000D01*
X31950Y26900D01*
Y26850D01*
X32000Y26800D01*
X32150D01*
X37100Y26050D02*
Y26350D01*
X37250D01*
X37300Y26300D01*
Y26200D01*
X37250Y26150D01*
X37100D01*
X37200D02*
X37300Y26050D01*
X37600Y26350D02*
X37400D01*
Y26200D01*
X37500Y26250D01*
X37550D01*
X37600Y26200D01*
Y26100D01*
X37550Y26050D01*
X37450D01*
X37400Y26100D01*
X37600Y27250D02*
Y26950D01*
X37450D01*
X37400Y27000D01*
Y27100D01*
X37450Y27150D01*
X37600D01*
X37500D02*
X37400Y27250D01*
X37100D02*
X37300D01*
X37100Y27050D01*
Y27000D01*
X37150Y26950D01*
X37250D01*
X37300Y27000D01*
X36900Y28550D02*
X36600D01*
Y28700D01*
X36650Y28750D01*
X36750D01*
X36800Y28700D01*
Y28550D01*
Y28650D02*
X36900Y28750D01*
Y28850D02*
Y28950D01*
Y28900D01*
X36600D01*
X36650Y28850D01*
X36850Y29100D02*
X36900Y29150D01*
Y29250D01*
X36850Y29300D01*
X36650D01*
X36600Y29250D01*
Y29150D01*
X36650Y29100D01*
X36700D01*
X36750Y29150D01*
Y29300D01*
X37900Y28550D02*
X37600D01*
Y28700D01*
X37650Y28750D01*
X37750D01*
X37800Y28700D01*
Y28550D01*
Y28650D02*
X37900Y28750D01*
Y29050D02*
Y28850D01*
X37700Y29050D01*
X37650D01*
X37600Y29000D01*
Y28900D01*
X37650Y28850D01*
Y29150D02*
X37600Y29200D01*
Y29300D01*
X37650Y29350D01*
X37850D01*
X37900Y29300D01*
Y29200D01*
X37850Y29150D01*
X37650D01*
X38900Y28550D02*
X38600D01*
Y28700D01*
X38650Y28750D01*
X38750D01*
X38800Y28700D01*
Y28550D01*
Y28650D02*
X38900Y28750D01*
Y29050D02*
Y28850D01*
X38700Y29050D01*
X38650D01*
X38600Y29000D01*
Y28900D01*
X38650Y28850D01*
X38900Y29150D02*
Y29250D01*
Y29200D01*
X38600D01*
X38650Y29150D01*
X31900Y28550D02*
X31600D01*
Y28700D01*
X31650Y28750D01*
X31750D01*
X31800Y28700D01*
Y28550D01*
Y28650D02*
X31900Y28750D01*
Y29050D02*
Y28850D01*
X31700Y29050D01*
X31650D01*
X31600Y29000D01*
Y28900D01*
X31650Y28850D01*
X31900Y29350D02*
Y29150D01*
X31700Y29350D01*
X31650D01*
X31600Y29300D01*
Y29200D01*
X31650Y29150D01*
X32900Y28550D02*
X32600D01*
Y28700D01*
X32650Y28750D01*
X32750D01*
X32800Y28700D01*
Y28550D01*
Y28650D02*
X32900Y28750D01*
Y29050D02*
Y28850D01*
X32700Y29050D01*
X32650D01*
X32600Y29000D01*
Y28900D01*
X32650Y28850D01*
Y29150D02*
X32600Y29200D01*
Y29300D01*
X32650Y29350D01*
X32700D01*
X32750Y29300D01*
Y29250D01*
Y29300D01*
X32800Y29350D01*
X32850D01*
X32900Y29300D01*
Y29200D01*
X32850Y29150D01*
X33900Y28550D02*
X33600D01*
Y28700D01*
X33650Y28750D01*
X33750D01*
X33800Y28700D01*
Y28550D01*
Y28650D02*
X33900Y28750D01*
Y29050D02*
Y28850D01*
X33700Y29050D01*
X33650D01*
X33600Y29000D01*
Y28900D01*
X33650Y28850D01*
X33900Y29300D02*
X33600D01*
X33750Y29150D01*
Y29350D01*
X34900Y28550D02*
X34600D01*
Y28700D01*
X34650Y28750D01*
X34750D01*
X34800Y28700D01*
Y28550D01*
Y28650D02*
X34900Y28750D01*
Y29050D02*
Y28850D01*
X34700Y29050D01*
X34650D01*
X34600Y29000D01*
Y28900D01*
X34650Y28850D01*
X34600Y29350D02*
Y29150D01*
X34750D01*
X34700Y29250D01*
Y29300D01*
X34750Y29350D01*
X34850D01*
X34900Y29300D01*
Y29200D01*
X34850Y29150D01*
X35900Y28550D02*
X35600D01*
Y28700D01*
X35650Y28750D01*
X35750D01*
X35800Y28700D01*
Y28550D01*
Y28650D02*
X35900Y28750D01*
Y29050D02*
Y28850D01*
X35700Y29050D01*
X35650D01*
X35600Y29000D01*
Y28900D01*
X35650Y28850D01*
X35600Y29350D02*
X35650Y29250D01*
X35750Y29150D01*
X35850D01*
X35900Y29200D01*
Y29300D01*
X35850Y29350D01*
X35800D01*
X35750Y29300D01*
Y29150D01*
X42550Y32900D02*
X42750Y32600D01*
Y32900D02*
X42550Y32600D01*
X42850D02*
X42950D01*
X42900D01*
Y32900D01*
X42850Y32850D01*
X43300Y32900D02*
X43200Y32850D01*
X43100Y32750D01*
Y32650D01*
X43150Y32600D01*
X43250D01*
X43300Y32650D01*
Y32700D01*
X43250Y32750D01*
X43100D01*
X38950Y33150D02*
X39150Y32850D01*
Y33150D02*
X38950Y32850D01*
X39250D02*
X39350D01*
X39300D01*
Y33150D01*
X39250Y33100D01*
X39700Y33150D02*
X39500D01*
Y33000D01*
X39600Y33050D01*
X39650D01*
X39700Y33000D01*
Y32900D01*
X39650Y32850D01*
X39550D01*
X39500Y32900D01*
X38750Y39100D02*
X39050Y39300D01*
X38750D02*
X39050Y39100D01*
Y39400D02*
Y39500D01*
Y39450D01*
X38750D01*
X38800Y39400D01*
X39050Y39800D02*
X38750D01*
X38900Y39650D01*
Y39850D01*
X44600Y36750D02*
X44800Y36450D01*
Y36750D02*
X44600Y36450D01*
X44900D02*
X45000D01*
X44950D01*
Y36750D01*
X44900Y36700D01*
X45150D02*
X45200Y36750D01*
X45300D01*
X45350Y36700D01*
Y36650D01*
X45300Y36600D01*
X45250D01*
X45300D01*
X45350Y36550D01*
Y36500D01*
X45300Y36450D01*
X45200D01*
X45150Y36500D01*
X44700Y37750D02*
X44900Y37450D01*
Y37750D02*
X44700Y37450D01*
X45000D02*
X45100D01*
X45050D01*
Y37750D01*
X45000Y37700D01*
X45450Y37450D02*
X45250D01*
X45450Y37650D01*
Y37700D01*
X45400Y37750D01*
X45300D01*
X45250Y37700D01*
X44600Y38650D02*
X44800Y38350D01*
Y38650D02*
X44600Y38350D01*
X44900D02*
X45000D01*
X44950D01*
Y38650D01*
X44900Y38600D01*
X45150Y38350D02*
X45250D01*
X45200D01*
Y38650D01*
X45150Y38600D01*
X44600Y39750D02*
X44800Y39450D01*
Y39750D02*
X44600Y39450D01*
X44900D02*
X45000D01*
X44950D01*
Y39750D01*
X44900Y39700D01*
X45150D02*
X45200Y39750D01*
X45300D01*
X45350Y39700D01*
Y39500D01*
X45300Y39450D01*
X45200D01*
X45150Y39500D01*
Y39700D01*
X41600Y32600D02*
X41400Y32900D01*
Y32600D02*
X41600Y32900D01*
X41300Y32850D02*
X41250Y32900D01*
X41150D01*
X41100Y32850D01*
Y32650D01*
X41150Y32600D01*
X41250D01*
X41300Y32650D01*
Y32700D01*
X41250Y32750D01*
X41100D01*
X44700Y40750D02*
X44900Y40450D01*
Y40750D02*
X44700Y40450D01*
X45000Y40700D02*
X45050Y40750D01*
X45150D01*
X45200Y40700D01*
Y40650D01*
X45150Y40600D01*
X45200Y40550D01*
Y40500D01*
X45150Y40450D01*
X45050D01*
X45000Y40500D01*
Y40550D01*
X45050Y40600D01*
X45000Y40650D01*
Y40700D01*
X45050Y40600D02*
X45150D01*
X44700Y33650D02*
X44900Y33350D01*
Y33650D02*
X44700Y33350D01*
X45000Y33650D02*
X45200D01*
Y33600D01*
X45000Y33400D01*
Y33350D01*
X44700Y34750D02*
X44900Y34450D01*
Y34750D02*
X44700Y34450D01*
X45200Y34750D02*
X45100Y34700D01*
X45000Y34600D01*
Y34500D01*
X45050Y34450D01*
X45150D01*
X45200Y34500D01*
Y34550D01*
X45150Y34600D01*
X45000D01*
X44800Y35750D02*
X45000Y35450D01*
Y35750D02*
X44800Y35450D01*
X45300Y35750D02*
X45100D01*
Y35600D01*
X45200Y35650D01*
X45250D01*
X45300Y35600D01*
Y35500D01*
X45250Y35450D01*
X45150D01*
X45100Y35500D01*
X43700Y32750D02*
X43900Y32450D01*
Y32750D02*
X43700Y32450D01*
X44150D02*
Y32750D01*
X44000Y32600D01*
X44200D01*
X44800Y32750D02*
X45000Y32450D01*
Y32750D02*
X44800Y32450D01*
X45100Y32700D02*
X45150Y32750D01*
X45250D01*
X45300Y32700D01*
Y32650D01*
X45250Y32600D01*
X45200D01*
X45250D01*
X45300Y32550D01*
Y32500D01*
X45250Y32450D01*
X45150D01*
X45100Y32500D01*
X40950Y38250D02*
Y38000D01*
X41000Y37950D01*
X41100D01*
X41150Y38000D01*
Y38250D01*
X41250Y37950D02*
X41350D01*
X41300D01*
Y38250D01*
X41250Y38200D01*
X39750Y36850D02*
X39450D01*
Y37000D01*
X39500Y37050D01*
X39600D01*
X39650Y37000D01*
Y36850D01*
Y36950D02*
X39750Y37050D01*
Y37150D02*
Y37250D01*
Y37200D01*
X39450D01*
X39500Y37150D01*
Y37400D02*
X39450Y37450D01*
Y37550D01*
X39500Y37600D01*
X39550D01*
X39600Y37550D01*
X39650Y37600D01*
X39700D01*
X39750Y37550D01*
Y37450D01*
X39700Y37400D01*
X39650D01*
X39600Y37450D01*
X39550Y37400D01*
X39500D01*
X39600Y37450D02*
Y37550D01*
X40300Y40950D02*
X40600D01*
Y40800D01*
X40550Y40750D01*
X40450D01*
X40400Y40800D01*
Y40950D01*
Y40850D02*
X40300Y40750D01*
Y40650D02*
Y40550D01*
Y40600D01*
X40600D01*
X40550Y40650D01*
X40600Y40400D02*
Y40200D01*
X40550D01*
X40350Y40400D01*
X40300D01*
X42100Y40250D02*
X41800D01*
Y40400D01*
X41850Y40450D01*
X41950D01*
X42000Y40400D01*
Y40250D01*
Y40350D02*
X42100Y40450D01*
Y40550D02*
Y40650D01*
Y40600D01*
X41800D01*
X41850Y40550D01*
X42100Y41000D02*
Y40800D01*
X41900Y41000D01*
X41850D01*
X41800Y40950D01*
Y40850D01*
X41850Y40800D01*
X41050Y40850D02*
X41350D01*
Y40700D01*
X41300Y40650D01*
X41200D01*
X41150Y40700D01*
Y40850D01*
Y40750D02*
X41050Y40650D01*
X41100Y40550D02*
X41050Y40500D01*
Y40400D01*
X41100Y40350D01*
X41300D01*
X41350Y40400D01*
Y40500D01*
X41300Y40550D01*
X41250D01*
X41200Y40500D01*
Y40350D01*
X40450Y35400D02*
X40750D01*
Y35250D01*
X40700Y35200D01*
X40600D01*
X40550Y35250D01*
Y35400D01*
Y35300D02*
X40450Y35200D01*
X40750Y34900D02*
Y35100D01*
X40600D01*
X40650Y35000D01*
Y34950D01*
X40600Y34900D01*
X40500D01*
X40450Y34950D01*
Y35050D01*
X40500Y35100D01*
X41650Y34900D02*
X41350D01*
Y35050D01*
X41400Y35100D01*
X41500D01*
X41550Y35050D01*
Y34900D01*
Y35000D02*
X41650Y35100D01*
Y35400D02*
Y35200D01*
X41450Y35400D01*
X41400D01*
X41350Y35350D01*
Y35250D01*
X41400Y35200D01*
X42950Y35600D02*
Y35900D01*
X43100D01*
X43150Y35850D01*
Y35750D01*
X43100Y35700D01*
X42950D01*
X43050D02*
X43150Y35600D01*
X43250D02*
X43350D01*
X43300D01*
Y35900D01*
X43250Y35850D01*
X43500Y35650D02*
X43550Y35600D01*
X43650D01*
X43700Y35650D01*
Y35850D01*
X43650Y35900D01*
X43550D01*
X43500Y35850D01*
Y35800D01*
X43550Y35750D01*
X43700D01*
X42950Y34600D02*
Y34900D01*
X43100D01*
X43150Y34850D01*
Y34750D01*
X43100Y34700D01*
X42950D01*
X43050D02*
X43150Y34600D01*
X43450D02*
X43250D01*
X43450Y34800D01*
Y34850D01*
X43400Y34900D01*
X43300D01*
X43250Y34850D01*
X43550D02*
X43600Y34900D01*
X43700D01*
X43750Y34850D01*
Y34650D01*
X43700Y34600D01*
X43600D01*
X43550Y34650D01*
Y34850D01*
X42950Y33600D02*
Y33900D01*
X43100D01*
X43150Y33850D01*
Y33750D01*
X43100Y33700D01*
X42950D01*
X43050D02*
X43150Y33600D01*
X43450D02*
X43250D01*
X43450Y33800D01*
Y33850D01*
X43400Y33900D01*
X43300D01*
X43250Y33850D01*
X43550Y33600D02*
X43650D01*
X43600D01*
Y33900D01*
X43550Y33850D01*
X42950Y40600D02*
Y40900D01*
X43100D01*
X43150Y40850D01*
Y40750D01*
X43100Y40700D01*
X42950D01*
X43050D02*
X43150Y40600D01*
X43450D02*
X43250D01*
X43450Y40800D01*
Y40850D01*
X43400Y40900D01*
X43300D01*
X43250Y40850D01*
X43750Y40600D02*
X43550D01*
X43750Y40800D01*
Y40850D01*
X43700Y40900D01*
X43600D01*
X43550Y40850D01*
X42950Y39600D02*
Y39900D01*
X43100D01*
X43150Y39850D01*
Y39750D01*
X43100Y39700D01*
X42950D01*
X43050D02*
X43150Y39600D01*
X43450D02*
X43250D01*
X43450Y39800D01*
Y39850D01*
X43400Y39900D01*
X43300D01*
X43250Y39850D01*
X43550D02*
X43600Y39900D01*
X43700D01*
X43750Y39850D01*
Y39800D01*
X43700Y39750D01*
X43650D01*
X43700D01*
X43750Y39700D01*
Y39650D01*
X43700Y39600D01*
X43600D01*
X43550Y39650D01*
X42950Y38600D02*
Y38900D01*
X43100D01*
X43150Y38850D01*
Y38750D01*
X43100Y38700D01*
X42950D01*
X43050D02*
X43150Y38600D01*
X43450D02*
X43250D01*
X43450Y38800D01*
Y38850D01*
X43400Y38900D01*
X43300D01*
X43250Y38850D01*
X43700Y38600D02*
Y38900D01*
X43550Y38750D01*
X43750D01*
X42950Y37600D02*
Y37900D01*
X43100D01*
X43150Y37850D01*
Y37750D01*
X43100Y37700D01*
X42950D01*
X43050D02*
X43150Y37600D01*
X43450D02*
X43250D01*
X43450Y37800D01*
Y37850D01*
X43400Y37900D01*
X43300D01*
X43250Y37850D01*
X43750Y37900D02*
X43550D01*
Y37750D01*
X43650Y37800D01*
X43700D01*
X43750Y37750D01*
Y37650D01*
X43700Y37600D01*
X43600D01*
X43550Y37650D01*
X42950Y36600D02*
Y36900D01*
X43100D01*
X43150Y36850D01*
Y36750D01*
X43100Y36700D01*
X42950D01*
X43050D02*
X43150Y36600D01*
X43450D02*
X43250D01*
X43450Y36800D01*
Y36850D01*
X43400Y36900D01*
X43300D01*
X43250Y36850D01*
X43750Y36900D02*
X43650Y36850D01*
X43550Y36750D01*
Y36650D01*
X43600Y36600D01*
X43700D01*
X43750Y36650D01*
Y36700D01*
X43700Y36750D01*
X43550D01*
X34500Y32900D02*
X34700Y32600D01*
Y32900D02*
X34500Y32600D01*
X34800D02*
X34900D01*
X34850D01*
Y32900D01*
X34800Y32850D01*
X35250Y32900D02*
X35150Y32850D01*
X35050Y32750D01*
Y32650D01*
X35100Y32600D01*
X35200D01*
X35250Y32650D01*
Y32700D01*
X35200Y32750D01*
X35050D01*
X30900Y33150D02*
X31100Y32850D01*
Y33150D02*
X30900Y32850D01*
X31200D02*
X31300D01*
X31250D01*
Y33150D01*
X31200Y33100D01*
X31650Y33150D02*
X31450D01*
Y33000D01*
X31550Y33050D01*
X31600D01*
X31650Y33000D01*
Y32900D01*
X31600Y32850D01*
X31500D01*
X31450Y32900D01*
X30700Y39100D02*
X31000Y39300D01*
X30700D02*
X31000Y39100D01*
Y39400D02*
Y39500D01*
Y39450D01*
X30700D01*
X30750Y39400D01*
X31000Y39800D02*
X30700D01*
X30850Y39650D01*
Y39850D01*
X36550Y36750D02*
X36750Y36450D01*
Y36750D02*
X36550Y36450D01*
X36850D02*
X36950D01*
X36900D01*
Y36750D01*
X36850Y36700D01*
X37100D02*
X37150Y36750D01*
X37250D01*
X37300Y36700D01*
Y36650D01*
X37250Y36600D01*
X37200D01*
X37250D01*
X37300Y36550D01*
Y36500D01*
X37250Y36450D01*
X37150D01*
X37100Y36500D01*
X36650Y37750D02*
X36850Y37450D01*
Y37750D02*
X36650Y37450D01*
X36950D02*
X37050D01*
X37000D01*
Y37750D01*
X36950Y37700D01*
X37400Y37450D02*
X37200D01*
X37400Y37650D01*
Y37700D01*
X37350Y37750D01*
X37250D01*
X37200Y37700D01*
X36550Y38650D02*
X36750Y38350D01*
Y38650D02*
X36550Y38350D01*
X36850D02*
X36950D01*
X36900D01*
Y38650D01*
X36850Y38600D01*
X37100Y38350D02*
X37200D01*
X37150D01*
Y38650D01*
X37100Y38600D01*
X36550Y39750D02*
X36750Y39450D01*
Y39750D02*
X36550Y39450D01*
X36850D02*
X36950D01*
X36900D01*
Y39750D01*
X36850Y39700D01*
X37100D02*
X37150Y39750D01*
X37250D01*
X37300Y39700D01*
Y39500D01*
X37250Y39450D01*
X37150D01*
X37100Y39500D01*
Y39700D01*
X33550Y32600D02*
X33350Y32900D01*
Y32600D02*
X33550Y32900D01*
X33250Y32850D02*
X33200Y32900D01*
X33100D01*
X33050Y32850D01*
Y32650D01*
X33100Y32600D01*
X33200D01*
X33250Y32650D01*
Y32700D01*
X33200Y32750D01*
X33050D01*
X36650Y40750D02*
X36850Y40450D01*
Y40750D02*
X36650Y40450D01*
X36950Y40700D02*
X37000Y40750D01*
X37100D01*
X37150Y40700D01*
Y40650D01*
X37100Y40600D01*
X37150Y40550D01*
Y40500D01*
X37100Y40450D01*
X37000D01*
X36950Y40500D01*
Y40550D01*
X37000Y40600D01*
X36950Y40650D01*
Y40700D01*
X37000Y40600D02*
X37100D01*
X36650Y33650D02*
X36850Y33350D01*
Y33650D02*
X36650Y33350D01*
X36950Y33650D02*
X37150D01*
Y33600D01*
X36950Y33400D01*
Y33350D01*
X36650Y34750D02*
X36850Y34450D01*
Y34750D02*
X36650Y34450D01*
X37150Y34750D02*
X37050Y34700D01*
X36950Y34600D01*
Y34500D01*
X37000Y34450D01*
X37100D01*
X37150Y34500D01*
Y34550D01*
X37100Y34600D01*
X36950D01*
X36750Y35750D02*
X36950Y35450D01*
Y35750D02*
X36750Y35450D01*
X37250Y35750D02*
X37050D01*
Y35600D01*
X37150Y35650D01*
X37200D01*
X37250Y35600D01*
Y35500D01*
X37200Y35450D01*
X37100D01*
X37050Y35500D01*
X35650Y32750D02*
X35850Y32450D01*
Y32750D02*
X35650Y32450D01*
X36100D02*
Y32750D01*
X35950Y32600D01*
X36150D01*
X36750Y32750D02*
X36950Y32450D01*
Y32750D02*
X36750Y32450D01*
X37050Y32700D02*
X37100Y32750D01*
X37200D01*
X37250Y32700D01*
Y32650D01*
X37200Y32600D01*
X37150D01*
X37200D01*
X37250Y32550D01*
Y32500D01*
X37200Y32450D01*
X37100D01*
X37050Y32500D01*
X32900Y38250D02*
Y38000D01*
X32950Y37950D01*
X33050D01*
X33100Y38000D01*
Y38250D01*
X33200Y37950D02*
X33300D01*
X33250D01*
Y38250D01*
X33200Y38200D01*
X31700Y36850D02*
X31400D01*
Y37000D01*
X31450Y37050D01*
X31550D01*
X31600Y37000D01*
Y36850D01*
Y36950D02*
X31700Y37050D01*
Y37150D02*
Y37250D01*
Y37200D01*
X31400D01*
X31450Y37150D01*
Y37400D02*
X31400Y37450D01*
Y37550D01*
X31450Y37600D01*
X31500D01*
X31550Y37550D01*
X31600Y37600D01*
X31650D01*
X31700Y37550D01*
Y37450D01*
X31650Y37400D01*
X31600D01*
X31550Y37450D01*
X31500Y37400D01*
X31450D01*
X31550Y37450D02*
Y37550D01*
X32250Y40950D02*
X32550D01*
Y40800D01*
X32500Y40750D01*
X32400D01*
X32350Y40800D01*
Y40950D01*
Y40850D02*
X32250Y40750D01*
Y40650D02*
Y40550D01*
Y40600D01*
X32550D01*
X32500Y40650D01*
X32550Y40400D02*
Y40200D01*
X32500D01*
X32300Y40400D01*
X32250D01*
X34050Y40250D02*
X33750D01*
Y40400D01*
X33800Y40450D01*
X33900D01*
X33950Y40400D01*
Y40250D01*
Y40350D02*
X34050Y40450D01*
Y40550D02*
Y40650D01*
Y40600D01*
X33750D01*
X33800Y40550D01*
X34050Y41000D02*
Y40800D01*
X33850Y41000D01*
X33800D01*
X33750Y40950D01*
Y40850D01*
X33800Y40800D01*
X33000Y40850D02*
X33300D01*
Y40700D01*
X33250Y40650D01*
X33150D01*
X33100Y40700D01*
Y40850D01*
Y40750D02*
X33000Y40650D01*
X33050Y40550D02*
X33000Y40500D01*
Y40400D01*
X33050Y40350D01*
X33250D01*
X33300Y40400D01*
Y40500D01*
X33250Y40550D01*
X33200D01*
X33150Y40500D01*
Y40350D01*
X32400Y35400D02*
X32700D01*
Y35250D01*
X32650Y35200D01*
X32550D01*
X32500Y35250D01*
Y35400D01*
Y35300D02*
X32400Y35200D01*
X32700Y34900D02*
Y35100D01*
X32550D01*
X32600Y35000D01*
Y34950D01*
X32550Y34900D01*
X32450D01*
X32400Y34950D01*
Y35050D01*
X32450Y35100D01*
X33600Y34900D02*
X33300D01*
Y35050D01*
X33350Y35100D01*
X33450D01*
X33500Y35050D01*
Y34900D01*
Y35000D02*
X33600Y35100D01*
Y35400D02*
Y35200D01*
X33400Y35400D01*
X33350D01*
X33300Y35350D01*
Y35250D01*
X33350Y35200D01*
X34900Y35600D02*
Y35900D01*
X35050D01*
X35100Y35850D01*
Y35750D01*
X35050Y35700D01*
X34900D01*
X35000D02*
X35100Y35600D01*
X35200D02*
X35300D01*
X35250D01*
Y35900D01*
X35200Y35850D01*
X35450Y35650D02*
X35500Y35600D01*
X35600D01*
X35650Y35650D01*
Y35850D01*
X35600Y35900D01*
X35500D01*
X35450Y35850D01*
Y35800D01*
X35500Y35750D01*
X35650D01*
X34900Y34600D02*
Y34900D01*
X35050D01*
X35100Y34850D01*
Y34750D01*
X35050Y34700D01*
X34900D01*
X35000D02*
X35100Y34600D01*
X35400D02*
X35200D01*
X35400Y34800D01*
Y34850D01*
X35350Y34900D01*
X35250D01*
X35200Y34850D01*
X35500D02*
X35550Y34900D01*
X35650D01*
X35700Y34850D01*
Y34650D01*
X35650Y34600D01*
X35550D01*
X35500Y34650D01*
Y34850D01*
X34900Y33600D02*
Y33900D01*
X35050D01*
X35100Y33850D01*
Y33750D01*
X35050Y33700D01*
X34900D01*
X35000D02*
X35100Y33600D01*
X35400D02*
X35200D01*
X35400Y33800D01*
Y33850D01*
X35350Y33900D01*
X35250D01*
X35200Y33850D01*
X35500Y33600D02*
X35600D01*
X35550D01*
Y33900D01*
X35500Y33850D01*
X34900Y40600D02*
Y40900D01*
X35050D01*
X35100Y40850D01*
Y40750D01*
X35050Y40700D01*
X34900D01*
X35000D02*
X35100Y40600D01*
X35400D02*
X35200D01*
X35400Y40800D01*
Y40850D01*
X35350Y40900D01*
X35250D01*
X35200Y40850D01*
X35700Y40600D02*
X35500D01*
X35700Y40800D01*
Y40850D01*
X35650Y40900D01*
X35550D01*
X35500Y40850D01*
X34900Y39600D02*
Y39900D01*
X35050D01*
X35100Y39850D01*
Y39750D01*
X35050Y39700D01*
X34900D01*
X35000D02*
X35100Y39600D01*
X35400D02*
X35200D01*
X35400Y39800D01*
Y39850D01*
X35350Y39900D01*
X35250D01*
X35200Y39850D01*
X35500D02*
X35550Y39900D01*
X35650D01*
X35700Y39850D01*
Y39800D01*
X35650Y39750D01*
X35600D01*
X35650D01*
X35700Y39700D01*
Y39650D01*
X35650Y39600D01*
X35550D01*
X35500Y39650D01*
X34900Y38600D02*
Y38900D01*
X35050D01*
X35100Y38850D01*
Y38750D01*
X35050Y38700D01*
X34900D01*
X35000D02*
X35100Y38600D01*
X35400D02*
X35200D01*
X35400Y38800D01*
Y38850D01*
X35350Y38900D01*
X35250D01*
X35200Y38850D01*
X35650Y38600D02*
Y38900D01*
X35500Y38750D01*
X35700D01*
X34900Y37600D02*
Y37900D01*
X35050D01*
X35100Y37850D01*
Y37750D01*
X35050Y37700D01*
X34900D01*
X35000D02*
X35100Y37600D01*
X35400D02*
X35200D01*
X35400Y37800D01*
Y37850D01*
X35350Y37900D01*
X35250D01*
X35200Y37850D01*
X35700Y37900D02*
X35500D01*
Y37750D01*
X35600Y37800D01*
X35650D01*
X35700Y37750D01*
Y37650D01*
X35650Y37600D01*
X35550D01*
X35500Y37650D01*
X34900Y36600D02*
Y36900D01*
X35050D01*
X35100Y36850D01*
Y36750D01*
X35050Y36700D01*
X34900D01*
X35000D02*
X35100Y36600D01*
X35400D02*
X35200D01*
X35400Y36800D01*
Y36850D01*
X35350Y36900D01*
X35250D01*
X35200Y36850D01*
X35700Y36900D02*
X35600Y36850D01*
X35500Y36750D01*
Y36650D01*
X35550Y36600D01*
X35650D01*
X35700Y36650D01*
Y36700D01*
X35650Y36750D01*
X35500D01*
M02*
